<?xml version="1.0" encoding="utf-8"?>
<!-- Generator: Adobe Illustrator 22.0.1, SVG Export Plug-In . SVG Version: 6.00 Build 0)  -->
<svg version="1.1" id="Layer_1" xmlns="http://www.w3.org/2000/svg" xmlns:xlink="http://www.w3.org/1999/xlink" x="0px" y="0px"
	 viewBox="0 0 200 200" style="enable-background:new 0 0 200 200;" xml:space="preserve">
<style type="text/css">
	.st0{fill:#FFFFFF;}
</style>
<path class="st0" d="M100,198c-54,0-98-44-98-98C2,46,46,2,100,2s98,44,98,98C198,154,154,198,100,198z M100,7.2
	C48.8,7.2,7.2,48.8,7.2,100s41.6,92.8,92.8,92.8c51.2,0,92.8-41.7,92.8-92.8S151.2,7.2,100,7.2z"/>
<path class="st0" d="M72.7,156c-0.4,0-0.8-0.1-1.2-0.3c-0.9-0.4-1.4-1.3-1.4-2.3V46.6c0-1,0.5-1.8,1.4-2.3c0.9-0.4,1.9-0.4,2.7,0.2
	l75.3,53.4c0.7,0.5,1.1,1.3,1.1,2.1s-0.4,1.6-1.1,2.1l-75.3,53.4C73.7,155.8,73.2,156,72.7,156z M75.3,51.6v96.8l68.3-48.4
	L75.3,51.6z"/>
<path class="st0" d="M179,77.6c-1.1,0-2.2-0.7-2.5-1.9c-6.3-22.4-22.1-40.6-43.2-50.1c-1.3-0.6-1.9-2.1-1.3-3.4
	c0.6-1.3,2.1-1.9,3.4-1.3C158,31,174.8,50.5,181.5,74.3c0.4,1.4-0.4,2.8-1.8,3.2C179.5,77.6,179.2,77.6,179,77.6z"/>
<path class="st0" d="M43.2,165.2c-0.6,0-1.2-0.2-1.7-0.7c-5.6-5-10.5-10.8-14.7-17c-0.8-1.2-0.5-2.8,0.7-3.6
	c1.2-0.8,2.8-0.5,3.6,0.7c3.9,5.9,8.6,11.3,13.9,16.1c1.1,1,1.1,2.6,0.2,3.6C44.6,164.9,43.9,165.2,43.2,165.2z"/>
<circle class="st0" cx="126" cy="20" r="2.6"/>
<circle class="st0" cx="50.4" cy="167.8" r="2.6"/>
</svg>
